<svg width="32" height="32" viewBox="0 0 32 32" fill="none" xmlns="http://www.w3.org/2000/svg">
	<path d="M9.67471 11.6467L15.7533 7.65165C15.8279 7.60277 15.9125 7.57704 15.9986 7.57704C16.0847 7.57704 16.1693 7.60277 16.244 7.65165L22.3225 11.6467C22.3973 11.696 22.4593 11.7669 22.5024 11.8521C22.5455 11.9374 22.568 12.0341 22.5679 12.1324V20.121C22.5677 20.2191 22.5449 20.3154 22.5019 20.4004C22.4588 20.4853 22.397 20.556 22.3225 20.6053L16.244 24.6003C16.1693 24.6492 16.0847 24.6749 15.9986 24.6749C15.9125 24.6749 15.8279 24.6492 15.7533 24.6003L9.67471 20.6053C9.59995 20.5559 9.53792 20.4851 9.49486 20.3998C9.45179 20.3146 9.42921 20.2179 9.42938 20.1195V12.1324C9.42934 12.0341 9.45198 11.9375 9.49504 11.8523C9.53809 11.767 9.60004 11.6961 9.67471 11.6467ZM31.8011 15.2866L24.5399 0.904658C24.2759 0.384024 23.7879 0 23.2599 0H8.73872C8.21072 0 7.72273 0.384024 7.45873 0.904658L0.19749 15.2547C0.0680673 15.513 0 15.8051 0 16.1025C0 16.3998 0.0680673 16.692 0.19749 16.9502L7.46007 31.2153C7.72273 31.7344 8.21072 32 8.73872 32H23.2625C23.7892 32 24.2759 31.742 24.5412 31.2228L31.8024 16.935C31.9318 16.6853 32 16.4007 32 16.1108C32 15.8209 31.9318 15.5363 31.8024 15.2866M25.7892 22.2021C25.7867 22.3071 25.7603 22.4095 25.7126 22.4995C25.665 22.5894 25.5976 22.6637 25.5172 22.7151L16.2653 28.7897C16.1857 28.8415 16.0956 28.8687 16.004 28.8687C15.9123 28.8687 15.8222 28.8415 15.7426 28.7897L6.48541 22.7151C6.40472 22.6639 6.3371 22.5897 6.28919 22.4997C6.24127 22.4098 6.2147 22.3072 6.21208 22.2021V10.0499C6.21208 9.8374 6.32275 9.64159 6.48408 9.53686L15.732 3.46229C15.892 3.35604 16.0946 3.35604 16.2546 3.46229L25.5118 9.53837C25.5928 9.58942 25.6607 9.66356 25.7088 9.75351C25.757 9.84346 25.7838 9.94612 25.7865 10.0514L25.7892 22.2021Z" fill="white" />
</svg>
