<svg width="33" height="37" viewBox="0 0 33 37" fill="none" xmlns="http://www.w3.org/2000/svg">
	<g clip-path="url(#clip0_1065_33)">
		<path d="M31.7624 18.1997C31.7624 16.1098 30.2778 14.3659 28.3221 13.9935L33 0H10.8882L15.5732 14.0218C13.6856 14.4479 12.2697 16.1588 12.2697 18.1997C12.2697 19.7324 13.0683 21.0786 14.2652 21.8351C13.6895 22.7049 13.0068 23.5235 12.2244 24.272C10.9838 25.4591 9.60159 26.3594 8.11143 26.9517C6.61058 25.9954 5.9761 24.1922 6.63507 22.6213L6.68663 22.4984C6.71886 22.4215 6.75121 22.3443 6.78344 22.2672C8.43189 21.6842 9.61847 20.0927 9.61847 18.2244C9.61847 15.8638 7.72497 13.9435 5.39757 13.9435C3.07016 13.9435 1.17679 15.8638 1.17679 18.2244C1.17679 19.4158 1.65954 20.4947 2.43659 21.2716C2.2957 21.5762 2.14758 21.8858 1.99534 22.203C1.28481 23.6831 0.479536 25.3608 0.17493 27.2238C-0.430027 30.9236 0.545665 33.8813 2.92231 35.5519C4.36451 36.5657 5.82902 36.9644 7.3028 36.9643C10.078 36.9642 12.8852 35.5502 15.6309 34.1669C17.6085 33.1708 19.6532 32.1407 21.673 31.6355C22.4245 31.4475 23.1978 31.3344 24.0165 31.2147C25.64 30.9771 27.3188 30.7316 28.8059 29.8581C30.5295 28.8455 31.7095 27.1469 32.0431 25.1979C32.3296 23.5248 31.9847 21.8492 31.144 20.4281C31.536 19.7785 31.7624 19.0155 31.7624 18.1997ZM30.1054 18.1997C30.1054 19.6335 28.9553 20.8001 27.5415 20.8001C26.1279 20.8001 24.9777 19.6335 24.9777 18.1997C24.9777 16.7658 26.1279 15.5994 27.5415 15.5994C28.9553 15.5994 30.1054 16.7658 30.1054 18.1997ZM30.6886 1.68056L26.5578 14.0374C26.3787 14.0809 26.2042 14.1358 26.0347 14.2019L21.954 5.75879L17.8615 14.1519C17.6847 14.0901 17.5026 14.0392 17.316 14.0016L13.1994 1.68056H30.6886ZM16.4905 15.5994C17.9042 15.5994 19.0543 16.7658 19.0543 18.1997C19.0543 19.6335 17.9042 20.8001 16.4905 20.8001C15.0769 20.8001 13.9266 19.6335 13.9266 18.1997C13.9266 16.7658 15.0769 15.5994 16.4905 15.5994ZM5.39757 15.6241C6.81141 15.6241 7.96151 16.7905 7.96151 18.2244C7.96151 19.6582 6.81141 20.8249 5.39757 20.8249C3.98398 20.8249 2.83375 19.6582 2.83375 18.2244C2.83375 16.7905 3.98398 15.6241 5.39757 15.6241ZM30.4105 24.9104C30.1611 26.3679 29.2735 27.6412 27.9754 28.4037C26.7653 29.1146 25.3153 29.3267 23.78 29.5512C22.9576 29.6715 22.107 29.796 21.2762 30.0039C19.0794 30.5532 16.9516 31.6252 14.8938 32.6618C10.7759 34.7363 7.21953 36.5278 3.86629 34.1706C1.40998 32.444 1.52342 29.2493 1.80959 27.4987C2.07475 25.8769 2.79173 24.3831 3.48511 22.9386C3.60513 22.6886 3.72166 22.4437 3.836 22.2004C4.17992 22.3399 4.54563 22.4349 4.9268 22.4781C4.22104 24.8407 5.33105 27.4095 7.66077 28.6235L7.97956 28.7897L8.31729 28.6677C10.1591 28.0025 11.8562 26.9348 13.3615 25.4944C14.3346 24.5634 15.1709 23.5333 15.8584 22.4326C16.0647 22.4641 16.2757 22.4807 16.4905 22.4807C18.8179 22.4807 20.7114 20.5604 20.7114 18.1997C20.7114 16.9302 20.1631 15.7885 19.2948 15.0038L21.9475 9.56339L24.627 15.1075C23.823 15.8875 23.3207 16.9848 23.3207 18.1997C23.3207 20.5604 25.2141 22.4807 27.5415 22.4807C28.4357 22.4807 29.2652 22.1965 29.9484 21.7135C30.4228 22.6984 30.5995 23.8066 30.4105 24.9104Z" fill="white" />
	</g>
	<defs>
		<clipPath id="clip0_1065_33">
			<rect width="33" height="37" fill="white" />
		</clipPath>
	</defs>
</svg>
