<svg width="32" height="32" viewBox="0 0 32 32" fill="none" xmlns="http://www.w3.org/2000/svg">
	<path d="M28.7689 16C30.7531 13.4149 31.3318 10.948 30.3932 9.01213C29.4381 7.04588 27.0651 5.96296 23.7093 5.96296C23.2313 5.96296 22.7362 5.99059 22.232 6.03272C20.7941 2.33781 18.5571 0 15.999 0C13.4409 0 11.2039 2.33712 9.76598 6.03272C9.2632 5.9899 8.76801 5.96296 8.2894 5.96296C4.93428 5.96296 2.56056 7.04588 1.6061 9.01213C0.666831 10.948 1.24628 13.4149 3.23048 16C1.24628 18.5844 0.666831 21.052 1.6061 22.9879C2.56056 24.9548 4.93428 26.037 8.28871 26.037C8.76732 26.037 9.2632 26.0094 9.76598 25.9673C11.2039 29.6629 13.4409 31.9993 15.999 31.9993C18.5571 31.9993 20.7941 29.6622 22.232 25.9673C22.7355 26.0101 23.2306 26.037 23.7093 26.037C27.0637 26.037 29.4374 24.9548 30.3926 22.9879C31.3325 21.0527 30.7531 18.5844 28.7689 16ZM23.7093 8.03557C26.1921 8.03557 27.9484 8.72137 28.5292 9.91755C29.0665 11.0246 28.6411 12.6338 27.371 14.4067C26.2922 13.3044 25.0132 12.2436 23.5753 11.2622C23.4081 10.1365 23.1816 9.06807 22.904 8.06803C23.1761 8.05214 23.4482 8.03557 23.7093 8.03557ZM18.5516 21.2564C17.7076 21.666 16.8526 22.0313 15.999 22.3546C15.146 22.0313 14.2903 21.666 13.4471 21.2564C12.3586 20.7281 11.3303 20.1459 10.3613 19.5298C10.2322 18.4145 10.1548 17.2404 10.1548 15.9993C10.1548 14.7589 10.2322 13.5842 10.3613 12.4688C11.3303 11.8534 12.3586 11.2712 13.4471 10.7429C14.291 10.3333 15.146 9.96797 15.999 9.64475C16.8526 9.96797 17.7083 10.3333 18.5516 10.7429C19.6393 11.2712 20.6677 11.8527 21.636 12.4688C21.7658 13.5842 21.8432 14.7596 21.8432 16C21.8432 17.2404 21.7658 18.4152 21.636 19.5305C20.6691 20.1459 19.64 20.7288 18.5516 21.2564ZM21.1919 22.2081C21.0779 22.7234 20.9529 23.2179 20.8141 23.6896C20.2326 23.5901 19.64 23.4679 19.035 23.3145C19.1759 23.2475 19.3168 23.1888 19.457 23.1219C20.051 22.8318 20.6263 22.5245 21.1919 22.2081ZM12.9636 23.3145C12.3586 23.4679 11.7661 23.5901 11.1839 23.6896C11.045 23.2179 10.92 22.7234 10.8061 22.2074C11.371 22.5238 11.9463 22.8311 12.5417 23.1198C12.6825 23.1888 12.8234 23.2475 12.9636 23.3145ZM8.1416 17.9607C7.33839 17.3281 6.60217 16.6713 5.96057 16C6.60217 15.328 7.33839 14.6726 8.1416 14.0393C8.10431 14.6816 8.0829 15.3342 8.0829 16C8.0829 16.6658 8.10431 17.3184 8.1416 17.9607ZM10.8068 9.79186C10.9207 9.27664 11.0457 8.78146 11.1845 8.30975C11.7661 8.40989 12.3586 8.53214 12.9636 8.68546C12.8234 8.75107 12.6825 8.80977 12.5423 8.87815C11.947 9.16821 11.3717 9.47555 10.8068 9.79186ZM19.035 8.68615C19.64 8.53283 20.2326 8.40989 20.8141 8.31044C20.9522 8.78215 21.0779 9.27664 21.1919 9.79186C20.6269 9.47555 20.0516 9.16752 19.457 8.87884C19.3175 8.81115 19.1759 8.75245 19.035 8.68615ZM23.8571 14.0379C24.6596 14.6719 25.3965 15.3273 26.0381 15.9993C25.3965 16.6713 24.6596 17.3267 23.8571 17.9607C23.8944 17.3184 23.9158 16.6658 23.9158 15.9993C23.9158 15.3335 23.8937 14.6809 23.8571 14.0379ZM15.999 2.07191C17.4472 2.07191 18.977 3.65209 20.1103 6.32555C18.7788 6.5728 17.3982 6.9485 15.9997 7.44162C14.6011 6.9485 13.2205 6.57349 11.889 6.32555C13.021 3.65209 14.5514 2.07191 15.999 2.07191ZM3.47013 9.91755C4.05026 8.72137 5.80725 8.03557 8.2894 8.03557C8.54977 8.03557 8.82257 8.05283 9.09468 8.06734C8.81704 9.06807 8.59121 10.1365 8.42407 11.2622C6.98616 12.2436 5.70641 13.3044 4.62902 14.4067C3.35755 12.6331 2.93212 11.0246 3.47013 9.91755ZM8.28871 23.9644C5.80725 23.9644 4.05026 23.2786 3.47013 22.0824C2.93212 20.9747 3.35755 19.3655 4.62902 17.5933C5.70641 18.6956 6.98616 19.7564 8.42407 20.7378C8.59121 21.8635 8.81773 22.9326 9.09468 23.9327C8.82257 23.9485 8.54908 23.9644 8.28871 23.9644ZM15.999 29.9281C14.5514 29.9281 13.021 28.3486 11.8883 25.6751C13.2199 25.4279 14.6004 25.0522 15.9997 24.5584C17.3982 25.0522 18.7788 25.4272 20.1103 25.6751C18.9777 28.3486 17.4472 29.9281 15.999 29.9281ZM28.5292 22.0831C27.9491 23.2786 26.1928 23.9651 23.71 23.9651C23.4496 23.9651 23.1768 23.9479 22.904 23.9334C23.1809 22.9326 23.4075 21.8642 23.5753 20.7385C25.0139 19.7571 26.2936 18.6956 27.3717 17.594C28.6411 19.3662 29.0672 20.9754 28.5292 22.0831Z" fill="white" />
	<path d="M15.999 19.2128C17.7734 19.2128 19.2118 17.7744 19.2118 16C19.2118 14.2255 17.7734 12.7871 15.999 12.7871C14.2246 12.7871 12.7861 14.2255 12.7861 16C12.7861 17.7744 14.2246 19.2128 15.999 19.2128Z" fill="white" />
</svg>
