<svg width="32" height="32" viewBox="0 0 32 32" fill="none" xmlns="http://www.w3.org/2000/svg">
	<g clip-path="url(#clip0_1078_232)">
		<path d="M15.3601 32C12.6443 32 10.0397 30.9211 8.11934 29.0008C6.19897 27.0804 5.12012 24.4758 5.12012 21.76C5.12012 19.0442 6.19897 16.4396 8.11934 14.5192C10.0397 12.5989 12.6443 11.52 15.3601 11.52V32ZM15.3601 0H5.12012V10.24H15.3601V0ZM21.7601 10.24C23.118 10.24 24.4203 9.70057 25.3805 8.74039C26.3407 7.7802 26.8801 6.47791 26.8801 5.12C26.8801 3.76209 26.3407 2.4598 25.3805 1.49961C24.4203 0.539427 23.118 0 21.7601 0C20.4022 0 19.0999 0.539427 18.1397 1.49961C17.1795 2.4598 16.6401 3.76209 16.6401 5.12C16.6401 6.47791 17.1795 7.7802 18.1397 8.74039C19.0999 9.70057 20.4022 10.24 21.7601 10.24Z" fill="white" />
	</g>
	<defs>
		<clipPath id="clip0_1078_232">
			<rect width="32" height="32" fill="white" />
		</clipPath>
	</defs>
</svg>
