<svg width="32" height="32" viewBox="0 0 32 32" fill="none" xmlns="http://www.w3.org/2000/svg">
	<g clip-path="url(#clip0_1076_194)">
		<path d="M15.9994 0C14.4779 0 13.2455 1.20994 13.2455 2.70373C13.2455 3.81726 13.9327 4.7743 14.9143 5.18925L14.9441 5.20166V6.34063C14.9441 7.44012 14.1117 8.37615 13.0045 8.52903L12.9708 8.53342L12.6383 8.576C10.8385 8.79954 9.44352 10.0698 9.08573 11.8155C8.72794 13.5612 9.50858 15.2644 11.0807 16.1585C11.7845 16.5564 12.5513 16.7998 13.3604 16.8819L13.4009 16.8859L18.3991 17.3472C18.9087 17.3933 19.3894 17.5459 19.8339 17.7978C20.741 18.3123 20.9181 19.2029 20.7808 19.8628C20.6448 20.5162 20.1369 21.26 19.1203 21.3987L18.7569 21.4453C16.5672 21.7123 14.9124 23.5337 14.8795 25.6944L14.879 25.7599V26.8173C13.9141 27.236 13.2383 28.1869 13.2383 29.2904C13.2383 30.7842 14.4706 31.9941 15.9922 31.9941C17.5137 31.9941 18.7461 30.7842 18.7461 29.2904C18.7461 28.1804 18.0624 27.2234 17.0844 26.8084L17.0547 26.796V25.7599C17.0547 24.6605 17.8871 23.7244 18.9943 23.5715L19.0279 23.5671L19.3604 23.5246C21.1602 23.301 22.5552 22.0308 22.913 20.2851C23.2744 18.5393 22.4902 16.8362 20.9181 15.9421C20.2142 15.5442 19.4475 15.3008 18.6384 15.2187L18.5979 15.2147L13.5997 14.7534C13.0901 14.7073 12.6094 14.5547 12.1649 14.3028C11.2578 13.7883 11.0807 12.8977 11.218 12.2377C11.354 11.5844 11.8619 10.8406 12.8784 10.7018L13.2419 10.6552C15.4315 10.3883 17.0864 8.56683 17.1192 6.40621L17.1197 6.34063V5.17328C18.0811 4.75104 18.7533 3.80367 18.7533 2.70373C18.7533 1.20994 17.5209 0 15.9994 0ZM12.6889 18.0923L11.1457 19.7528C9.99723 20.9928 9.35879 22.591 9.34614 24.2616L9.34594 24.3123H11.5252C11.5252 23.1671 11.9538 22.0707 12.7303 21.2191L12.754 21.1934L15.3778 18.369L13.2816 18.1739L13.2154 18.1666C13.0584 18.1491 12.9016 18.1289 12.7469 18.1025L12.6889 18.0923ZM20.6651 7.70669C20.6651 8.85184 20.2365 9.9483 19.46 10.7998L19.4363 10.8256L16.8053 13.657L18.7424 13.838L18.8 13.8431C19.0109 13.863 19.2215 13.893 19.4273 13.9332L19.4833 13.9444L21.041 12.2661C22.1895 11.0297 22.8279 9.42803 22.8406 7.75734L22.8408 7.70669H20.6651Z" fill="white" />
	</g>
	<defs>
		<clipPath id="clip0_1076_194">
			<rect width="14" height="32" fill="white" transform="matrix(-1 0 0 1 23 0)" />
		</clipPath>
	</defs>
</svg>
