<svg width="32" height="32" viewBox="0 0 32 32" fill="none" xmlns="http://www.w3.org/2000/svg">
	<path fill-rule="evenodd" clip-rule="evenodd" d="M0 0H32V32H0V0ZM23.4835 6.30992C24.2646 7.09097 24.2646 8.3573 23.4835 9.13835L9.13872 23.4832C8.35767 24.2642 7.09134 24.2642 6.31029 23.4832C5.52924 22.7021 5.52924 21.4358 6.31029 20.6548L20.6551 6.30992C21.4362 5.52888 22.7025 5.52888 23.4835 6.30992ZM24.9543 17.2303C25.7353 16.4493 25.7353 15.1829 24.9543 14.4019C24.1732 13.6208 22.9069 13.6208 22.1258 14.4019L14.4017 22.126C13.6206 22.9071 13.6206 24.1734 14.4017 24.9544C15.1827 25.7355 16.4491 25.7355 17.2301 24.9544L24.9543 17.2303Z" fill="white" />
</svg>
