<svg width="32" height="19" viewBox="0 0 32 19" fill="none" xmlns="http://www.w3.org/2000/svg">
	<g clip-path="url(#clip0_1051_13)">
		<mask id="mask0_1051_13" style="mask-type:luminance" maskUnits="userSpaceOnUse" x="0" y="0" width="32" height="19">
			<path d="M0 0H32V19H0V0Z" fill="white" />
		</mask>
		<g mask="url(#mask0_1051_13)">
			<path fill-rule="evenodd" clip-rule="evenodd" d="M16 0C11.7333 0 9.06667 2.11111 8 6.33333C9.6 4.22222 11.4667 3.43056 13.6 3.95833C14.8172 4.25917 15.6871 5.13352 16.6501 6.10052C18.2187 7.67623 20.0344 9.5 24 9.5C28.2667 9.5 30.9333 7.38889 32 3.16667C30.4 5.27778 28.5333 6.06944 26.4 5.54167C25.1828 5.24083 24.3129 4.36648 23.3499 3.39947C21.7813 1.82377 19.9656 0 16 0ZM8 9.5C3.73333 9.5 1.06667 11.6111 0 15.8333C1.6 13.7222 3.46667 12.9306 5.6 13.4583C6.81719 13.7598 7.68711 14.6335 8.65007 15.6005C10.2187 17.1762 12.0344 19 16 19C20.2667 19 22.9333 16.8889 24 12.6667C22.4 14.7778 20.5333 15.5694 18.4 15.0417C17.1828 14.7408 16.3129 13.8665 15.3499 12.8995C13.7813 11.3238 11.9656 9.5 8 9.5Z" fill="white" />
		</g>
	</g>
	<defs>
		<clipPath id="clip0_1051_13">
			<rect width="32" height="19" fill="white" />
		</clipPath>
	</defs>
</svg>
