<svg width="32" height="32" viewBox="0 0 32 32" fill="none" xmlns="http://www.w3.org/2000/svg">
	<path fill-rule="evenodd" clip-rule="evenodd" d="M16 0C24.8369 0 32 7.16333 32 16C32 24.8367 24.8369 32 16 32C7.16309 32 0 24.8367 0 16C0 7.16333 7.16309 0 16 0ZM17.5576 23.2178V20.0891C18.1182 20.5649 18.7266 20.9216 19.3828 21.1597C20.0391 21.3975 20.7021 21.5166 21.3711 21.5166C21.7637 21.5166 22.1064 21.4807 22.3994 21.4089C22.6924 21.3372 22.9375 21.2378 23.1338 21.1108C23.3301 20.9836 23.4766 20.8337 23.5723 20.6609C23.6689 20.4883 23.7178 20.3008 23.7178 20.0989C23.7178 19.825 23.6406 19.5806 23.4854 19.3655C23.3311 19.1504 23.1201 18.9517 22.8535 18.769C22.5859 18.5864 22.2695 18.4106 21.9023 18.241C21.5352 18.0715 21.1396 17.8989 20.7148 17.7229C19.6338 17.2666 18.8271 16.7092 18.2969 16.0508C17.7656 15.3926 17.5 14.5974 17.5 13.6653C17.5 12.9351 17.6445 12.3079 17.9346 11.783C18.2236 11.2583 18.6182 10.8264 19.1172 10.4875C19.6162 10.1487 20.1934 9.89917 20.8506 9.7395C21.5068 9.57983 22.2021 9.5 22.9355 9.5C23.6562 9.5 24.2949 9.54395 24.8516 9.63208C25.4082 9.71997 25.9219 9.85522 26.3916 10.0378V12.9612C26.1602 12.7983 25.9072 12.6548 25.6338 12.531C25.3604 12.4072 25.0791 12.3044 24.7891 12.2231C24.499 12.1416 24.2119 12.0813 23.9248 12.0422C23.7676 12.0208 23.6152 12.0051 23.4668 11.9954C23.3447 11.9873 23.2256 11.9834 23.1094 11.9834C22.7549 11.9834 22.4336 12.0176 22.1436 12.0862C21.8545 12.1545 21.6094 12.2507 21.4102 12.3745C21.2529 12.4722 21.124 12.5847 21.0225 12.7122C20.9951 12.7468 20.9697 12.7825 20.9463 12.8193C20.8369 12.9922 20.7822 13.186 20.7822 13.4011C20.7822 13.5261 20.7998 13.644 20.835 13.7549C20.8652 13.8525 20.9082 13.9448 20.9658 14.0317C21.0879 14.2175 21.2617 14.3936 21.4873 14.5598C21.7129 14.7261 21.9863 14.8889 22.3076 15.0488C22.6299 15.2085 22.9932 15.373 23.3984 15.5425C23.9521 15.7771 24.4492 16.0264 24.8906 16.2905C25.3311 16.5544 25.71 16.8525 26.0254 17.1851C26.3398 17.5176 26.582 17.8972 26.749 18.3242C26.7998 18.4529 26.8428 18.5879 26.8779 18.7292C26.959 19.0571 27 19.4189 27 19.8152C27 20.5974 26.8535 21.2542 26.5605 21.7854C26.2676 22.3167 25.8701 22.7468 25.3682 23.0759C24.8662 23.4053 24.2822 23.6416 23.6162 23.7849C22.9502 23.9282 22.2471 24 21.5068 24C20.7471 24 20.0244 23.9348 19.3389 23.8044C19.0068 23.7412 18.6953 23.6628 18.4062 23.5691C18.0996 23.4692 17.8164 23.3521 17.5576 23.2178ZM16.25 12.3176H12.2139V23.75H9.0166V12.3176H5V9.75H16.25V12.3176Z" fill="white" />
</svg>
